<svg xmlns="http://www.w3.org/2000/svg" viewBox="0 0 416.15 77.35"><g id="Layer_2" data-name="Layer 2"><g id="Layer_1-2" data-name="Layer 1"><path d="M38.67,0A38.68,38.68,0,1,0,77.35,38.67,38.72,38.72,0,0,0,38.67,0ZM70,38.67A31.35,31.35,0,1,1,38.67,7.33,31.38,31.38,0,0,1,70,38.67Z"/><circle cx="45.66" cy="24.2" r="4.26" transform="translate(-3.29 7.63) rotate(-9.22)"/><path d="M36.79,25.35a.83.83,0,0,0-1.18,0l-7.94,7.93a.85.85,0,0,0-.19.87l7.93,22.7a.84.84,0,0,0,1.58,0l7.93-22.7a.85.85,0,0,0-.19-.87Z"/><path d="M119.42,44.86a9.73,9.73,0,0,0-.42,2.9,5.49,5.49,0,0,0,.32,2.07c.21.53.53.8,1,.8v.48h-30v-.48l1.86-.37a3,3,0,0,0,1.65-1,2.72,2.72,0,0,0,.63-1.81v-30a2.72,2.72,0,0,0-.63-1.81,2.93,2.93,0,0,0-1.65-.95l-1.86-.38v-.48h30v.48c-.42,0-.74.27-1,.8a5.49,5.49,0,0,0-.32,2.07,9.73,9.73,0,0,0,.42,2.9c.29.9.62,1.36,1,1.36a3.53,3.53,0,0,1-2,.74,2.18,2.18,0,0,1-1.88-1A18.21,18.21,0,0,1,115,18a12.73,12.73,0,0,0-1.09-2.31,1.42,1.42,0,0,0-1.15-.77h-9.88a1.75,1.75,0,0,0-1.49.82,3.19,3.19,0,0,0-.59,1.89V30.91h1.07a10,10,0,0,0,4.67-1.15,9.77,9.77,0,0,0,3.62-3.11l.37-.53h.64V36.75h-.64l-.37-.53a9.77,9.77,0,0,0-3.62-3.11A10.1,10.1,0,0,0,101.83,32h-1.07v15.1a2.91,2.91,0,0,0,3,3h9a1.4,1.4,0,0,0,1.15-.77A12.73,12.73,0,0,0,115,47a18.21,18.21,0,0,1,1.62-3.16,2.21,2.21,0,0,1,1.88-1,3.53,3.53,0,0,1,2,.74C120,43.5,119.71,44,119.42,44.86Z"/><path d="M161,25.47a12.07,12.07,0,0,1,4.74,2.31A12.5,12.5,0,0,1,170,35.56q1.17,6.7-2.67,11.36a13.17,13.17,0,0,1-3.3,2.6A12.82,12.82,0,0,1,160,51a12.27,12.27,0,0,1-5.3-.22,11.75,11.75,0,0,1-4.59-2.39,12.17,12.17,0,0,1-4.35-7.66c-.8-4.64.12-8.46,2.77-11.43a12.58,12.58,0,0,1,3.14-2.57,11.61,11.61,0,0,1,3.89-1.4A13,13,0,0,1,161,25.47Zm-9.42,4.33a15,15,0,0,0-.18,7.37c.09.48.26,1.32.54,2.49a25.44,25.44,0,0,0,2,5.3,10.88,10.88,0,0,0,2.56,3.41A5,5,0,0,0,160.68,50c1.61-.27,2.78-1.48,3.53-3.63a15.15,15.15,0,0,0,.14-7.31c-.09-.48-.27-1.32-.54-2.49a25.82,25.82,0,0,0-2-5.25,13.37,13.37,0,0,0-2.53-3.52,5.19,5.19,0,0,0-4.26-1.53C153.46,26.5,152.3,27.7,151.58,29.8Z"/><path d="M199.55,26.66a2.69,2.69,0,0,0-1.63,1,2.8,2.8,0,0,0-.61,1.78V59.51a2.85,2.85,0,0,0,.61,1.79,2.73,2.73,0,0,0,1.63,1l1.59.32v.48H187.85V62.6l1.59-.32a2.73,2.73,0,0,0,1.63-1,2.85,2.85,0,0,0,.61-1.79V49a6.82,6.82,0,0,1-2.79,1.54,11.78,11.78,0,0,1-8.22-.32,11.54,11.54,0,0,1-3.82-2.55,12.94,12.94,0,0,1-3.67-9.57,13.57,13.57,0,0,1,3.61-9.62,10.85,10.85,0,0,1,7.82-3.4,10,10,0,0,1,4.12.87,6.65,6.65,0,0,1,3,2.48V25.86h9.46v.48Zm-8,19.41V31.55a6.17,6.17,0,0,0-2.15-3.05A5.4,5.4,0,0,0,186,27.19q-2.72,0-4.12,3.3a19.19,19.19,0,0,0-1.41,7.6A17.83,17.83,0,0,0,182,45.83,4.89,4.89,0,0,0,186.57,49,6.13,6.13,0,0,0,191.57,46.07Z"/><path d="M229.89,27.65a2.75,2.75,0,0,0-.61,1.78V46.76a2.79,2.79,0,0,0,.61,1.78,2.73,2.73,0,0,0,1.62,1l1.6.32v.48h-9.46v-2.5a9,9,0,0,1-3.14,2.42,9.17,9.17,0,0,1-3.93.88,10.64,10.64,0,0,1-4.6-1,8,8,0,0,1-3.35-2.82,7.24,7.24,0,0,1-1.25-4.17V29.43a2.8,2.8,0,0,0-.61-1.78,2.7,2.7,0,0,0-1.62-1l-1.6-.32v-.48h13v.48l-1.33.32a3.09,3.09,0,0,0-1.56,1,2.54,2.54,0,0,0-.62,1.72V42.61a9.16,9.16,0,0,0,1.2,5.1,3.77,3.77,0,0,0,3.32,1.81,5.56,5.56,0,0,0,2.77-.82,7.55,7.55,0,0,0,2.39-2.18,4.86,4.86,0,0,0,1-2.85V29.37a2.54,2.54,0,0,0-.62-1.72,3.09,3.09,0,0,0-1.56-1l-1.33-.32v-.48h13v.48l-1.6.32A2.7,2.7,0,0,0,229.89,27.65Z"/><path d="M255.54,41.2a4.68,4.68,0,0,1,1.06,3,5.08,5.08,0,0,1-1.46,3.51,10.09,10.09,0,0,1-3.85,2.52,13.21,13.21,0,0,1-5,.88,12.94,12.94,0,0,1-5.08-.8,10.91,10.91,0,0,1-4.07-2.6,12.67,12.67,0,0,1-3.82-9.57,13.45,13.45,0,0,1,3.56-9.73A10.46,10.46,0,0,1,240.47,26a12.18,12.18,0,0,1,9.09,0,11,11,0,0,1,3.69,2.42,12.28,12.28,0,0,1,3.3,7.07h-16.9a20.33,20.33,0,0,0-.16,2.61,17.55,17.55,0,0,0,1.8,8.26q1.82,3.43,5.05,3.43a4.47,4.47,0,0,0,3.22-1.38A4.29,4.29,0,0,0,251,45.29a2.88,2.88,0,0,0-.59-1.67,2.49,2.49,0,0,0-1.54-1,2.43,2.43,0,0,1,1-1.86,3.6,3.6,0,0,1,2.36-.85A4,4,0,0,1,255.54,41.2ZM241.48,28.63a16.46,16.46,0,0,0-1.62,5.45h9.67a13.45,13.45,0,0,0-1.59-5.69,3.82,3.82,0,0,0-3.19-2.08A3.65,3.65,0,0,0,241.48,28.63Z"/><path d="M282.54,33a9,9,0,0,1,3.27,7.26,9.22,9.22,0,0,1-1.92,5.82,12,12,0,0,1-5.18,3.77,19.26,19.26,0,0,1-7.2,1.3,16.87,16.87,0,0,1-7.2-1.38,10.2,10.2,0,0,1-4.39-3.61,8.51,8.51,0,0,1-1.44-4.68,7.21,7.21,0,0,1,1.49-4.6A4.71,4.71,0,0,1,263.85,35a3.89,3.89,0,0,1,2.56.85,5,5,0,0,1,1.46,2,5.54,5.54,0,0,1,.45,2,2.28,2.28,0,0,0-.8-.11,3,3,0,0,0-2.42,1.47,5,5,0,0,0-1,3,5.52,5.52,0,0,0,.82,2.87,6.14,6.14,0,0,0,2.39,2.23,7.75,7.75,0,0,0,3.75.85q4.41,0,6.56-2.34t2.16-7.49q0-5.22-2.34-7.66a8.7,8.7,0,0,0-6.59-2.45h-2.55V29.13h2.55a7.19,7.19,0,0,0,5.42-2c1.28-1.31,1.91-3.31,1.91-6a8.77,8.77,0,0,0-1.8-5.82,6.06,6.06,0,0,0-4.9-2.16,7.23,7.23,0,0,0-3.53.78,5.36,5.36,0,0,0-2.07,1.83,3.67,3.67,0,0,0-.67,1.91,2.82,2.82,0,0,0,1,2.47,3.87,3.87,0,0,0,2.29.72,2.81,2.81,0,0,0,.64-.05,4.46,4.46,0,0,1-.38,1.62,4.2,4.2,0,0,1-1.19,1.65,3.08,3.08,0,0,1-2.1.72,4.2,4.2,0,0,1-3.22-1.36A5,5,0,0,1,261,19.94a6.75,6.75,0,0,1,1-3.27,7.94,7.94,0,0,1,3.3-3,12.69,12.69,0,0,1,6.11-1.27,15.46,15.46,0,0,1,8.77,2.31,7.35,7.35,0,0,1,3.46,6.46c0,3.08-1.6,5.46-4.79,7.12A15.77,15.77,0,0,1,274,29.66,16,16,0,0,1,282.54,33Z"/><path d="M309.76,28.49a11.59,11.59,0,0,1,4.71,4.18,11.06,11.06,0,0,1,1.7,6,12.44,12.44,0,0,1-1.73,6.57,11.7,11.7,0,0,1-4.71,4.38,14.19,14.19,0,0,1-6.64,1.54q-7.33,0-10.69-4.73t-3.34-14.67a28.07,28.07,0,0,1,1.64-9.89,15.54,15.54,0,0,1,4.89-7,12.28,12.28,0,0,1,7.82-2.55,13,13,0,0,1,6.16,1.25,8,8,0,0,1,3.33,3,6.85,6.85,0,0,1,1,3.3,5,5,0,0,1-1.25,3.53,4.18,4.18,0,0,1-3.22,1.36,3,3,0,0,1-2.09-.72,4.33,4.33,0,0,1-1.2-1.65,4.42,4.42,0,0,1-.37-1.62,2.74,2.74,0,0,0,.64.05,3.82,3.82,0,0,0,2.28-.72,2.82,2.82,0,0,0,1-2.47,3.74,3.74,0,0,0-.66-1.91A5.47,5.47,0,0,0,306.94,14a7.2,7.2,0,0,0-3.53-.78c-2.87,0-5,1.63-6.46,4.87a28.45,28.45,0,0,0-2.15,11.61v3.19a5.34,5.34,0,0,1,1.27-2.55A9.32,9.32,0,0,1,299,28a8.66,8.66,0,0,1,4.07-.95A14.85,14.85,0,0,1,309.76,28.49ZM308.3,47a17.6,17.6,0,0,0,1.81-8.27,13.38,13.38,0,0,0-2-7.65,6.6,6.6,0,0,0-10.64-.54c-1.56,1.85-2.33,4.38-2.33,7.61a17.47,17.47,0,0,0,2,8.85,6.5,6.5,0,0,0,6,3.43A5.67,5.67,0,0,0,308.3,47Z"/><path d="M338,26.69A13.39,13.39,0,0,1,344,31.18a11.58,11.58,0,0,1,2.15,7,11.84,11.84,0,0,1-2.05,6.94,13,13,0,0,1-5.58,4.51,19.06,19.06,0,0,1-7.84,1.57,15.82,15.82,0,0,1-7-1.38,9.58,9.58,0,0,1-4.12-3.59,8.93,8.93,0,0,1-1.33-4.7,7.16,7.16,0,0,1,1.49-4.6A4.7,4.7,0,0,1,323.51,35a3.88,3.88,0,0,1,2.55.85,5,5,0,0,1,1.46,2,5.54,5.54,0,0,1,.45,2,2.28,2.28,0,0,0-.8-.11,2.94,2.94,0,0,0-2.41,1.47,5,5,0,0,0-1,3,6,6,0,0,0,1.62,4.2,6.26,6.26,0,0,0,4.81,1.75,9,9,0,0,0,5.26-1.54,9.9,9.9,0,0,0,3.43-4.28,15.15,15.15,0,0,0,1.2-6.14,10.62,10.62,0,0,0-3.43-8.37,13,13,0,0,0-9-3.06,14.25,14.25,0,0,0-2.74.32,17.42,17.42,0,0,0-2.68.74l3.51-14.67a57.54,57.54,0,0,0,7.86.48,48.71,48.71,0,0,0,10-1,6.06,6.06,0,0,1-2.39,4.87,10.45,10.45,0,0,1-6.22,1.62A33.56,33.56,0,0,1,326,17.7l-1.91,8a18.87,18.87,0,0,1,5.42-.54A22.29,22.29,0,0,1,338,26.69Z"/><path d="M349.52,45.9a2.88,2.88,0,0,1,2.21-.82,2.84,2.84,0,0,1,2.2.82,3.22,3.22,0,0,1,0,4.2,2.85,2.85,0,0,1-2.2.83,2.89,2.89,0,0,1-2.21-.83,3.25,3.25,0,0,1,0-4.2Z"/><path d="M386.09,49.92v.48h-13v-.48l1.33-.32a3.12,3.12,0,0,0,1.57-1,2.58,2.58,0,0,0,.61-1.72V33.12a7.79,7.79,0,0,0-1.23-4.79,3.93,3.93,0,0,0-3.29-1.59,5.73,5.73,0,0,0-2.77.8,7.74,7.74,0,0,0-2.39,2,4.07,4.07,0,0,0-.95,2.48V46.89a2.53,2.53,0,0,0,.61,1.72,3.08,3.08,0,0,0,1.57,1l1.32.32v.48h-13v-.48l1.6-.32a2.7,2.7,0,0,0,1.62-1,2.75,2.75,0,0,0,.61-1.78V29.5a2.79,2.79,0,0,0-.61-1.78,2.73,2.73,0,0,0-1.62-1l-1.6-.32v-.48H366v2.5a8.22,8.22,0,0,1,3.11-2.39,9.31,9.31,0,0,1,4-.91,9.87,9.87,0,0,1,6.59,2.21,7.21,7.21,0,0,1,2.6,5.77V46.83a2.8,2.8,0,0,0,.61,1.78,2.7,2.7,0,0,0,1.62,1Z"/><path d="M414.36,25.3a3.82,3.82,0,0,1,1.79,3.3,3.73,3.73,0,0,1-.72,2.23,2.35,2.35,0,0,1-2.05,1,2.73,2.73,0,0,1-1.78-.63,1.83,1.83,0,0,1-.77-1.39,1.82,1.82,0,0,0,1.17-.77,2.26,2.26,0,0,0,.42-1.3,2.12,2.12,0,0,0-1-1.89,4.63,4.63,0,0,0-2.53-.66,4.15,4.15,0,0,0-1.75.42,4.47,4.47,0,0,0-1.49,1.12h-.11q5,2.45,4.95,7.44a8.16,8.16,0,0,1-3.35,6.43,11.48,11.48,0,0,1-3.72,1.92,15.49,15.49,0,0,1-4.68.69,16.9,16.9,0,0,1-3.22-.32,10.19,10.19,0,0,1-2.84-1q-2.92,1.76-2.92,3.14a1.42,1.42,0,0,0,1.14,1.46,10.89,10.89,0,0,0,3.06.35h9.14a9.62,9.62,0,0,1,6.4,2.07A6.73,6.73,0,0,1,412,54.38a8.44,8.44,0,0,1-3.62,6.75A13.51,13.51,0,0,1,399.67,64a31.23,31.23,0,0,1-6.3-.66A14.19,14.19,0,0,1,387.86,61a5.25,5.25,0,0,1-2.28-4.44,5.68,5.68,0,0,1,1.09-3.32,3.69,3.69,0,0,1,3.27-1.57q3.93,0,3.93,3.24a3.8,3.8,0,0,0-1.88.9,2.31,2.31,0,0,0-.78,1.81,4,4,0,0,0,2.58,3.88,14.09,14.09,0,0,0,5.88,1.17,16,16,0,0,0,3.69-.37,8.2,8.2,0,0,0,2.95-1.38,6.24,6.24,0,0,0,1.86-2.18,5.83,5.83,0,0,0,.69-2.71q0-5.05-5.79-5h-9.14a10.07,10.07,0,0,1-5.43-1.2,3.55,3.55,0,0,1-1.86-3.06A3.89,3.89,0,0,1,388,43.83a15.48,15.48,0,0,1,3.59-2.47,9.14,9.14,0,0,1-3.94-3.94,7.79,7.79,0,0,1-.69-3.24,8.18,8.18,0,0,1,3.35-6.43A11.46,11.46,0,0,1,394,25.84a15.53,15.53,0,0,1,8.67-.16c.56.14,1.09.3,1.59.47a5.65,5.65,0,0,1,2.5-1.56,10.1,10.1,0,0,1,3.19-.51A7.58,7.58,0,0,1,414.36,25.3ZM403,40.14A8.64,8.64,0,0,0,404.24,35a14.18,14.18,0,0,0-.64-4.38,8,8,0,0,0-1.7-3.11,4.75,4.75,0,0,0-3.4-1.6,4.59,4.59,0,0,0-4,2.29,8.61,8.61,0,0,0-1.28,5.1,14.1,14.1,0,0,0,.64,4.41,7.58,7.58,0,0,0,1.75,3.09,4.75,4.75,0,0,0,3.35,1.59A4.6,4.6,0,0,0,403,40.14Z"/><circle cx="142.62" cy="21.29" r="2.85" transform="translate(-1.57 23.12) rotate(-9.22)"/><path d="M140.57,25.94,142,27.37a.56.56,0,0,1,.13.58l-5.3,15.17a.56.56,0,0,1-1.06,0L130.47,28a.56.56,0,0,1,.13-.58L132,25.94H118.77v.48a7.87,7.87,0,0,1,3.37,1.7,9.14,9.14,0,0,1,2.42,3.24l9.2,19.83h1.49l7.65-19.45a8.82,8.82,0,0,1,2.23-3.3,9.26,9.26,0,0,1,3.46-2h0v-.48Z"/></g></g></svg>